:FULLY-SPECIFIED
:FORCE-ALL-JOINTS-BE-3DOF
:DEGREES
883
root 3.86485 16.517 30.5281 -11.036 22.6598 0.250373
lfemur -15.149 18.7303 -19.8431
ltibia 40.2064 -0 0
lfoot -13.3699 -3.1364 -0.00635988
ltoes -0.738379 0 0
rfemur -78.444 -23.6613 35.4413
rtibia 96.3102 -0 0
rfoot 16.2637 23.8112 -0.0302955
rtoes -14.0581 0 0
lowerback 15.335 -3.65074 -7.20526
upperback 5.09064 -5.92664 -2.67378
thorax -2.68074 -2.93188 2.2059
lowerneck -7.52657 -3.24421 1.70294
upperneck 4.01657 -4.79341 4.85938
head 2.68462 -2.18916 1.04549
lclavicle 0 0 0
lhumerus -33.9801 -39.56 87.8815
lradius 62.0243 -0 0
lwrist 20.9395 0 0
lhand 24.1375 11.4359 0.0055684
lfingers 0 0 0
lthumb 48.3657 33.4569 -0.00074908
rclavicle 0 0 0
rhumerus -48.4775 -27.4906 -48.3305
rradius 72.0304 -0 0
rwrist -21.6665 0 0
rhand -40.8112 -42.2094 -0.0424185
rfingers 0 0 0
rthumb -13.7492 -71.7261 -0.0425855
884
root 3.8467 16.5213 30.5987 -10.2951 23.4107 -0.0146694
lfemur -16.1219 19.9586 -19.6763
ltibia 40.6188 -0 0
lfoot -13.5754 -2.81626 -0.00957393
ltoes -0.620263 0 0
rfemur -75.4339 -24.6843 33.1833
rtibia 98.1289 -0 0
rfoot 16.4552 22.1767 -0.0456224
rtoes -12.478 0 0
lowerback 14.5004 -3.80802 -7.13842
upperback 4.7488 -6.07203 -2.53692
thorax -2.5683 -3.00289 2.27249
lowerneck -7.53613 -3.49723 1.49564
upperneck 4.14524 -5.12219 4.92108
head 2.74731 -2.35087 1.08379
lclavicle 0 0 0
lhumerus -35.0628 -40.3015 89.4851
lradius 62.0954 -0 0
lwrist 20.0092 0 0
lhand 24.5131 11.5892 0.00838248
lfingers 0 0 0
lthumb 48.71 33.4344 -0.00112763
rclavicle 0 0 0
rhumerus -48.1624 -26.2043 -50.7897
rradius 74.9783 -0 0
rwrist -21.3264 0 0
rhand -40.2448 -42.9838 -0.0638622
rfingers 0 0 0
rthumb -13.2031 -72.5323 -0.0641139
885
root 3.82844 16.5263 30.6685 -9.46505 24.2551 -0.30061
lfemur -17.2161 21.3369 -19.5145
ltibia 41.0806 -0 0
lfoot -13.8055 -2.45779 -0.0118103
ltoes -0.488006 0 0
rfemur -71.985 -25.698 30.5669
rtibia 100.165 -0 0
rfoot 16.6701 20.3465 -0.0562934
rtoes -10.7088 0 0
lowerback 13.5654 -3.98294 -7.06086
upperback 4.36551 -6.23386 -2.3826
thorax -2.44248 -3.08255 2.34688
lowerneck -7.54575 -3.78059 1.2635
upperneck 4.28898 -5.49051 4.98932
head 2.81738 -2.53199 1.12647
lclavicle 0 0 0
lhumerus -36.3213 -41.1034 91.3234
lradius 62.1751 -0 0
lwrist 18.9676 0 0
lhand 24.9337 11.7609 0.0103405
lfingers 0 0 0
lthumb 49.0956 33.4092 -0.00139103
rclavicle 0 0 0
rhumerus -47.8861 -24.7512 -53.5028
rradius 78.2791 -0 0
rwrist -20.9455 0 0
rhand -39.6103 -43.851 -0.0787855
rfingers 0 0 0
rthumb -12.5913 -73.4352 -0.0790963
886
root 3.81067 16.5316 30.7356 -8.59211 25.146 -0.588452
lfemur -18.3723 22.7874 -19.3735
ltibia 41.5655 -0 0
lfoot -14.0471 -2.08127 -0.0126091
ltoes -0.349095 0 0
rfemur -68.281 -26.6054 27.7282
rtibia 102.304 -0 0
rfoot 16.896 18.4242 -0.0601064
rtoes -8.85053 0 0
lowerback 12.583 -4.16529 -6.9763
upperback 3.96233 -6.40273 -2.2193
thorax -2.31044 -3.1664 2.42484
lowerneck -7.55461 -4.07824 1.01964
upperneck 4.43958 -5.87753 5.06005
head 2.89085 -2.72228 1.17107
lclavicle 0 0 0
lhumerus -37.6962 -41.9119 93.3033
lradius 62.2588 -0 0
lwrist 17.8736 0 0
lhand 25.3754 11.9413 0.0110399
lfingers 0 0 0
lthumb 49.5005 33.3827 -0.00148511
rclavicle 0 0 0
rhumerus -47.6801 -23.2142 -56.3113
rradius 81.746 -0 0
rwrist -20.5455 0 0
rhand -38.9437 -44.762 -0.0841167
rfingers 0 0 0
rthumb -11.9485 -74.3837 -0.0844485
887
root 3.79398 16.5369 30.798 -7.72287 26.0355 -0.861704
lfemur -19.5304 24.2315 -19.2637
ltibia 42.0476 -0 0
lfoot -14.2873 -1.70701 -0.0118292
ltoes -0.211015 0 0
rfemur -64.5266 -27.3408 24.8263
rtibia 104.43 -0 0
rfoot 17.1206 16.5134 -0.0563839
rtoes -7.00339 0 0
lowerback 11.6059 -4.34508 -6.88914
upperback 3.56096 -6.56944 -2.05574
thorax -2.17929 -3.24992 2.50214
lowerneck -7.56217 -4.37415 0.777202
upperneck 4.58891 -6.26243 5.12938
head 2.96374 -2.91148 1.21516
lclavicle 0 0 0
lhumerus -39.1168 -42.6793 95.3217
lradius 62.3421 -0 0
lwrist 16.7861 0 0
lhand 25.8144 12.1206 0.0103571
lfingers 0 0 0
lthumb 49.9031 33.3564 -0.00139326
rclavicle 0 0 0
rhumerus -47.5581 -21.6792 -59.0664
rradius 85.1921 -0 0
rwrist -20.148 0 0
rhand -38.2812 -45.6676 -0.0789121
rfingers 0 0 0
rthumb -11.3096 -75.3265 -0.0792233
888
root 3.77898 16.542 30.8535 -6.90418 26.8747 -1.10661
lfemur -20.6284 25.5903 -19.1889
ltibia 42.5007 -0 0
lfoot -14.5131 -1.3553 -0.00966617
ltoes -0.0812538 0 0
rfemur -60.9439 -27.8749 22.0393
rtibia 106.428 -0 0
rfoot 17.3314 14.7177 -0.0460624
rtoes -5.26753 0 0
lowerback 10.6873 -4.51267 -6.80442
upperback 3.1832 -6.72507 -1.90092
thorax -2.05613 -3.32858 2.57462
lowerneck -7.56813 -4.65225 0.549311
upperneck 4.72892 -6.62429 5.19367
head 3.03212 -3.08934 1.25639
lclavicle 0 0 0
lhumerus -40.5009 -43.366 97.2644
lradius 62.4203 -0 0
lwrist 15.7641 0 0
lhand 26.2271 12.2891 0.00846324
lfingers 0 0 0
lthumb 50.2813 33.3317 -0.0011385
rclavicle 0 0 0
rhumerus -47.5165 -20.2332 -61.6266
rradius 88.4306 -0 0
rwrist -19.7743 0 0
rhand -37.6586 -46.5185 -0.0644777
rfingers 0 0 0
rthumb -10.7093 -76.2123 -0.0647319
889
root 3.76628 16.5465 30.9003 -6.18343 27.6141 -1.31205
lfemur -21.6017 26.7844 -19.1465
ltibia 42.8985 -0 0
lfoot -14.7113 -1.04643 -0.0066238
ltoes 0.0327034 -0 0
rfemur -57.7637 -28.2152 19.5547
rtibia 108.183 -0 0
rfoot 17.5162 13.1408 -0.0315536
rtoes -3.74309 0 0
lowerback 9.88011 -4.65871 -6.72778
upperback 2.85101 -6.8609 -1.76406
thorax -1.94805 -3.39778 2.63814
lowerneck -7.57245 -4.8965 0.349124
upperneck 4.85162 -6.94221 5.24943
head 3.09207 -3.24558 1.29242
lclavicle 0 0 0
lhumerus -41.7553 -43.9401 99.007
lradius 62.4889 -0 0
lwrist 14.8667 0 0
lhand 26.5894 12.437 0.00579947
lfingers 0 0 0
lthumb 50.6136 33.31 -0.000780164
rclavicle 0 0 0
rhumerus -47.5365 -18.963 -63.8551
rradius 91.2747 -0 0
rwrist -19.4462 0 0
rhand -37.1122 -47.2655 -0.0441791
rfingers 0 0 0
rthumb -10.1823 -76.9902 -0.0443531
890
root 3.75646 16.5501 30.9362 -5.60861 28.2041 -1.46895
lfemur -22.3828 27.7349 -19.1288
ltibia 43.2151 -0 0
lfoot -14.869 -0.800703 -0.00343994
ltoes 0.12337 -0 0
rfemur -55.2172 -28.3984 17.5602
rtibia 109.579 -0 0
rfoot 17.6629 11.8862 -0.0163808
rtoes -2.53021 0 0
lowerback 9.23767 -4.77412 -6.66533
upperback 2.58641 -6.96841 -1.65458
thorax -1.8621 -3.45292 2.68858
lowerneck -7.57528 -5.09084 0.189811
upperneck 4.94908 -7.19524 5.29334
head 3.13971 -3.36991 1.32098
lclavicle 0 0 0
lhumerus -42.7789 -44.3768 100.418
lradius 62.5436 -0 0
lwrist 14.1526 0 0
lhand 26.8777 12.5547 0.00301183
lfingers 0 0 0
lthumb 50.8779 33.2927 -0.000405164
rclavicle 0 0 0
rhumerus -47.5895 -17.9535 -65.6167
rradius 93.5375 -0 0
rwrist -19.1851 0 0
rhand -36.6776 -47.8598 -0.022941
rfingers 0 0 0
rthumb -9.76333 -77.6089 -0.0230313
891
root 3.75012 16.5525 30.9592 -5.22817 28.5946 -1.56937
lfemur -22.9023 28.3628 -19.1251
ltibia 43.4242 -0 0
lfoot -14.9732 -0.638391 -0.000965914
ltoes 0.18326 -0 0
rfemur -53.5298 -28.4765 16.2369
rtibia 110.501 -0 0
rfoot 17.7596 11.0575 -0.00459835
rtoes -1.72904 0 0
lowerback 8.81317 -4.84998 -6.62336
upperback 2.41148 -7.03915 -1.58197
thorax -1.80536 -3.48938 2.72186
lowerneck -7.57685 -5.21922 0.0845553
upperneck 5.01338 -7.36242 5.32211
head 3.17114 -3.45206 1.33979
lclavicle 0 0 0
lhumerus -43.4674 -44.6552 101.361
lradius 62.5797 -0 0
lwrist 13.6809 0 0
lhand 27.0681 12.6324 0.000845702
lfingers 0 0 0
lthumb 51.0525 33.2813 -0.000113768
rclavicle 0 0 0
rhumerus -47.6421 -17.2877 -66.7755
rradius 95.0322 -0 0
rwrist -19.0127 0 0
rhand -36.3907 -48.2522 -0.00644116
rfingers 0 0 0
rthumb -9.48669 -78.0175 -0.00646648
892
root 3.70258 16.5299 31.1952 -5.09063 28.7357 -1.605
lfemur -23.0907 28.5895 -19.1254
ltibia 43.4997 0 0
lfoot -15.0108 -0.579779 0
ltoes 0.204887 0 0
rfemur -52.9197 -28.4963 15.7583
rtibia 110.834 0 0
rfoot 17.7945 10.7583 0
rtoes -1.43973 0 0
lowerback 8.65985 -4.87729 -6.60806
upperback 2.34828 -7.06464 -1.5557
thorax -1.78487 -3.50256 2.73387
lowerneck -7.57736 -5.26558 0.0465419
upperneck 5.03659 -7.4228 5.33246
head 3.18249 -3.48172 1.34657
lclavicle 2.75814e-14 2.22639e-14 0
lhumerus -43.7184 -44.7538 101.704
lradius 62.5927 0 0
lwrist 13.5106 0 0
lhand 27.1369 12.6605 0
lfingers 7.12502 0 0
lthumb 51.1155 33.2772 0
rclavicle 2.75814e-14 2.22639e-14 0
rhumerus -47.6645 -17.0476 -67.1931
rradius 95.572 0 0
rwrist -18.9504 0 0
rhand -36.2871 -48.3939 0
rfingers 7.12502 0 0
rthumb -9.38682 -78.165 0
893
root 3.69333 16.5217 31.2554 -4.83513 28.3133 -1.46253
lfemur -23.2571 28.4028 -18.9861
ltibia 43.8677 -0 0
lfoot -15.0442 -0.575965 -1.71361e-05
ltoes 0.812741 -0 0
rfemur -51.0981 -27.7225 14.4427
rtibia 108.887 -0 0
rfoot 17.0421 8.74739 0.209684
rtoes 1.0023 -0 0
lowerback 8.36861 -4.72294 -6.40881
upperback 2.23532 -6.82489 -1.59017
thorax -1.77437 -3.38358 2.55814
lowerneck -7.54389 -5.3474 -0.0660506
upperneck 5.00484 -7.51723 5.3112
head 3.17299 -3.53278 1.35516
lclavicle 0 0 0
lhumerus -44.2515 -44.3595 102.264
lradius 62.4916 -0 0
lwrist 13.4773 0 0
lhand 27.3159 12.9127 0.00608489
lfingers 0 0 0
lthumb 51.2776 33.4302 0.00334082
rclavicle 0 0 0
rhumerus -47.102 -15.3111 -68.9157
rradius 96.6828 -0 0
rwrist -18.3395 0 0
rhand -33.3832 -45.9006 1.08093
rfingers 0 0 0
rthumb -6.62106 -75.4249 1.13648
894
root 3.68962 16.5103 31.3116 -4.47304 27.7075 -1.26317
lfemur -23.4957 28.1361 -18.786
ltibia 44.3947 -0 0
lfoot -15.0919 -0.570503 -3.78092e-05
ltoes 1.68325 -0 0
rfemur -48.5475 -26.5517 12.6243
rtibia 106.099 -0 0
rfoot 15.9529 5.86309 0.463673
rtoes 4.49954 -0 0
lowerback 7.95257 -4.50015 -6.1249
upperback 2.0734 -6.48166 -1.64033
thorax -1.75997 -3.21313 2.30656
lowerneck -7.49566 -5.46447 -0.227404
upperneck 4.95943 -7.65248 5.28083
head 3.15938 -3.6059 1.36749
lclavicle 0 0 0
lhumerus -44.9994 -43.7886 103.051
lradius 62.3469 -0 0
lwrist 13.4296 0 0
lhand 27.5724 13.2739 0.0134263
lfingers 0 0 0
lthumb 51.5097 33.6494 0.00737135
rclavicle 0 0 0
rhumerus -46.3976 -12.798 -71.3296
rradius 98.2736 -0 0
rwrist -17.4646 0 0
rhand -29.1462 -42.2393 2.40362
rfingers 0 0 0
rthumb -2.56978 -71.4096 2.52797
895
root 3.69048 16.4967 31.3634 -4.03569 26.9643 -1.02646
lfemur -23.7885 27.8106 -18.54
ltibia 45.0398 -0 0
lfoot -15.1504 -0.563816 -5.69154e-05
ltoes 2.74887 -0 0
rfemur -45.5181 -25.0237 10.5043
rtibia 102.686 -0 0
rfoot 14.6042 2.3264 0.699418
rtoes 8.78063 -0 0
lowerback 7.44497 -4.22464 -5.77971
upperback 1.87493 -6.06169 -1.70302
thorax -1.74337 -3.0044 1.9987
lowerneck -7.43617 -5.60759 -0.425102
upperneck 4.90392 -7.81809 5.24378
head 3.14268 -3.69541 1.3826
lclavicle 0 0 0
lhumerus -45.8905 -43.0798 103.99
lradius 62.1697 -0 0
lwrist 13.3713 0 0
lhand 27.8864 13.7162 0.0202119
lfingers 0 0 0
lthumb 51.7938 33.9177 0.0110966
rclavicle 0 0 0
rhumerus -45.6906 -9.6863 -74.213
rradius 100.221 -0 0
rwrist -16.3937 0 0
rhand -23.8516 -37.6346 3.64496
rfingers 0 0 0
rthumb 2.51331 -66.3696 3.83476
896
root 3.69491 16.4816 31.4104 -3.55341 26.1304 -0.77074
lfemur -24.1171 27.4474 -18.2632
ltibia 45.7621 -0 0
lfoot -15.2159 -0.556329 -7.0209e-05
ltoes 3.94206 -0 0
rfemur -42.2457 -23.1979 8.26922
rtibia 98.8643 -0 0
rfoot 13.08 -1.6392 0.864016
rtoes 13.5743 -0 0
lowerback 6.87879 -3.91255 -5.39624
upperback 1.65231 -5.5917 -1.77489
thorax -1.72611 -2.77058 1.65412
lowerneck -7.36894 -5.7676 -0.646702
upperneck 4.84186 -8.00355 5.20248
head 3.12397 -3.79563 1.39955
lclavicle 0 0 0
lhumerus -46.8575 -42.2738 105.01
lradius 61.9713 -0 0
lwrist 13.3059 0 0
lhand 28.238 14.2114 0.0249335
lfingers 0 0 0
lthumb 52.112 34.2182 0.0136886
rclavicle 0 0 0
rhumerus -45.0931 -6.16614 -77.37
rradius 102.401 -0 0
rwrist -15.1945 0 0
rhand -17.8189 -32.3608 4.51978
rfingers 0 0 0
rthumb 8.32457 -60.6057 4.75625
